<svg xmlns="http://www.w3.org/2000/svg" viewBox="0 0 1400 900" role="img" aria-labelledby="title desc">
  <title id="title">Ride The Lightning demo preview</title>
  <desc id="desc">A static placeholder for the final Ride The Lightning screenshot.</desc>
  <rect width="1400" height="900" fill="#111827"/>
  <rect x="0" y="0" width="230" height="900" fill="#0b1220"/>
  <circle cx="80" cy="80" r="34" fill="#f5a623"/>
  <path d="M89 39 58 85h24l-10 38 36-54H84z" fill="#fff"/>
  <g fill="#9ca3af" font-family="Arial, sans-serif" font-size="22"><text x="45" y="180">Dashboard</text><text x="45" y="235">Lightning</text><text x="45" y="290">Peers</text><text x="45" y="345">Channels</text></g>
  <text x="285" y="90" fill="#fff" font-family="Arial, sans-serif" font-size="38" font-weight="700">Ride The Lightning</text>
  <text x="285" y="135" fill="#9ca3af" font-family="Arial, sans-serif" font-size="21">Static demo preview</text>
  <g fill="#1f2937" stroke="#374151" stroke-width="2"><rect x="285" y="190" width="315" height="190" rx="12"/><rect x="630" y="190" width="315" height="190" rx="12"/><rect x="975" y="190" width="315" height="190" rx="12"/><rect x="285" y="420" width="1005" height="360" rx="12"/></g>
  <g fill="#9ca3af" font-family="Arial, sans-serif" font-size="19"><text x="320" y="235">CHANNEL BALANCE</text><text x="665" y="235">ON-CHAIN BALANCE</text><text x="1010" y="235">ACTIVE CHANNELS</text></g>
  <g fill="#fff" font-family="Arial, sans-serif" font-size="34" font-weight="700"><text x="320" y="305">2,450,000 sats</text><text x="665" y="305">875,000 sats</text><text x="1010" y="305">8</text></g>
  <text x="320" y="475" fill="#fff" font-family="Arial, sans-serif" font-size="24" font-weight="700">Channel activity</text>
  <path d="M330 700 C430 610 500 680 590 570 S760 650 850 520 1030 610 1235 475" fill="none" stroke="#f5a623" stroke-width="8"/>
</svg>
